<svg width="162" height="43" viewBox="0 0 162 43" fill="none" xmlns="http://www.w3.org/2000/svg">
<rect width="161.664" height="42.8686" rx="5.0073" fill="black"/>
<g clip-path="url(#clip0_9113_1789)">
<path d="M40.2767 16.8703C38.3619 18.0536 37.1792 20.082 37.1792 22.3358C37.1792 24.8714 38.6998 27.1816 41.0089 28.1394C40.5583 29.6044 39.8825 30.9567 39.0377 32.1963C37.7987 33.943 36.5034 35.7461 34.5886 35.7461C32.6738 35.7461 32.1106 34.6192 29.8578 34.6192C27.6614 34.6192 26.8729 35.8024 25.0708 35.8024C23.2686 35.8024 22.0296 34.1684 20.6216 32.14C18.7631 29.3227 17.693 26.0546 17.6367 22.6176C17.6367 17.0393 21.2411 14.053 24.8455 14.053C26.7603 14.053 28.3372 15.2926 29.5199 15.2926C30.6463 15.2926 32.4485 13.9967 34.5886 13.9967C36.8413 13.9403 38.9814 15.0109 40.2767 16.8703ZM33.5748 11.6302C34.5323 10.5032 35.0391 9.09461 35.0954 7.62962C35.0954 7.46058 35.0954 7.2352 35.0391 7.06616C33.4059 7.2352 31.8853 8.02404 30.8152 9.26364C29.8578 10.3342 29.2946 11.6865 29.2383 13.1515C29.2383 13.3205 29.2383 13.4896 29.2946 13.6586C29.4073 13.6586 29.5762 13.7149 29.6889 13.7149C31.2095 13.6023 32.6174 12.8134 33.5748 11.6302Z" fill="white"/>
</g>
<path d="M57.0789 15.0073V7.9971H60.0332C60.7809 7.9971 61.4386 8.14399 62.0061 8.43775C62.5802 8.73151 63.0242 9.14211 63.338 9.66954C63.6585 10.197 63.8187 10.8079 63.8187 11.5022C63.8187 12.1966 63.6585 12.8075 63.338 13.3349C63.0242 13.8623 62.5802 14.2729 62.0061 14.5667C61.4386 14.8604 60.7809 15.0073 60.0332 15.0073H57.0789ZM58.0803 14.1361H59.9731C60.5539 14.1361 61.0547 14.0259 61.4753 13.8056C61.9026 13.5853 62.2331 13.2781 62.4667 12.8842C62.7004 12.4836 62.8172 12.023 62.8172 11.5022C62.8172 10.9748 62.7004 10.5141 62.4667 10.1202C62.2331 9.72629 61.9026 9.41918 61.4753 9.19886C61.0547 8.97854 60.5539 8.86837 59.9731 8.86837H58.0803V14.1361ZM67.4858 15.0674C66.9517 15.0674 66.4776 14.9506 66.0637 14.7169C65.6498 14.4832 65.3226 14.1628 65.0823 13.7555C64.8419 13.3416 64.7217 12.8742 64.7217 12.3535C64.7217 11.826 64.8419 11.3587 65.0823 10.9514C65.3226 10.5442 65.6498 10.227 66.0637 10C66.4776 9.76635 66.9517 9.64951 67.4858 9.64951C68.0132 9.64951 68.4839 9.76635 68.8978 10C69.3184 10.227 69.6456 10.5442 69.8793 10.9514C70.1196 11.352 70.2398 11.8193 70.2398 12.3535C70.2398 12.8809 70.1196 13.3482 69.8793 13.7555C69.6456 14.1628 69.3184 14.4832 68.8978 14.7169C68.4839 14.9506 68.0132 15.0674 67.4858 15.0674ZM67.4858 14.2262C67.8263 14.2262 68.13 14.1494 68.3971 13.9958C68.6708 13.8423 68.8845 13.6253 69.038 13.3449C69.1916 13.0578 69.2684 12.7273 69.2684 12.3535C69.2684 11.9729 69.1916 11.6458 69.038 11.372C68.8845 11.0916 68.6708 10.8746 68.3971 10.7211C68.13 10.5675 67.8263 10.4907 67.4858 10.4907C67.1453 10.4907 66.8415 10.5675 66.5744 10.7211C66.3074 10.8746 66.0937 11.0916 65.9335 11.372C65.7733 11.6458 65.6932 11.9729 65.6932 12.3535C65.6932 12.7273 65.7733 13.0578 65.9335 13.3449C66.0937 13.6253 66.3074 13.8423 66.5744 13.9958C66.8415 14.1494 67.1453 14.2262 67.4858 14.2262ZM72.5443 15.0073L70.5714 9.69959H71.4828L73.2353 14.5066H72.8047L74.6273 9.69959H75.4385L77.2211 14.5066H76.8005L78.5931 9.69959H79.4544L77.4715 15.0073H76.5502L74.8777 10.6209H75.1581L73.4657 15.0073H72.5443ZM83.2641 9.64951C83.698 9.64951 84.0786 9.73297 84.4057 9.89988C84.7396 10.0668 84.9999 10.3205 85.1869 10.661C85.3738 11.0015 85.4673 11.4321 85.4673 11.9529V15.0073H84.5059V12.063C84.5059 11.5489 84.379 11.1617 84.1253 10.9013C83.8783 10.641 83.5278 10.5108 83.0738 10.5108C82.7333 10.5108 82.4362 10.5775 82.1825 10.7111C81.9288 10.8446 81.7318 11.0415 81.5916 11.3019C81.4581 11.5623 81.3913 11.8861 81.3913 12.2733V15.0073H80.4299V9.69959H81.3513V11.1317L81.2011 10.7511C81.3747 10.4039 81.6417 10.1336 82.0022 9.93994C82.3628 9.74632 82.7834 9.64951 83.2641 9.64951ZM87.2465 15.0073V7.57649H88.2079V15.0073H87.2465ZM92.3169 15.0674C91.7828 15.0674 91.3088 14.9506 90.8948 14.7169C90.4809 14.4832 90.1537 14.1628 89.9134 13.7555C89.673 13.3416 89.5529 12.8742 89.5529 12.3535C89.5529 11.826 89.673 11.3587 89.9134 10.9514C90.1537 10.5442 90.4809 10.227 90.8948 10C91.3088 9.76635 91.7828 9.64951 92.3169 9.64951C92.8443 9.64951 93.315 9.76635 93.7289 10C94.1496 10.227 94.4767 10.5442 94.7104 10.9514C94.9507 11.352 95.0709 11.8193 95.0709 12.3535C95.0709 12.8809 94.9507 13.3482 94.7104 13.7555C94.4767 14.1628 94.1496 14.4832 93.7289 14.7169C93.315 14.9506 92.8443 15.0674 92.3169 15.0674ZM92.3169 14.2262C92.6574 14.2262 92.9612 14.1494 93.2282 13.9958C93.5019 13.8423 93.7156 13.6253 93.8691 13.3449C94.0227 13.0578 94.0995 12.7273 94.0995 12.3535C94.0995 11.9729 94.0227 11.6458 93.8691 11.372C93.7156 11.0916 93.5019 10.8746 93.2282 10.7211C92.9612 10.5675 92.6574 10.4907 92.3169 10.4907C91.9764 10.4907 91.6726 10.5675 91.4056 10.7211C91.1385 10.8746 90.9249 11.0916 90.7646 11.372C90.6044 11.6458 90.5243 11.9729 90.5243 12.3535C90.5243 12.7273 90.6044 13.0578 90.7646 13.3449C90.9249 13.6253 91.1385 13.8423 91.4056 13.9958C91.6726 14.1494 91.9764 14.2262 92.3169 14.2262ZM99.6464 15.0073V13.8857L99.5963 13.6754V11.7626C99.5963 11.3553 99.4761 11.0415 99.2358 10.8212C99.0021 10.5942 98.6483 10.4807 98.1743 10.4807C97.8605 10.4807 97.5533 10.5341 97.2529 10.641C96.9525 10.7411 96.6988 10.878 96.4918 11.0516L96.0912 10.3305C96.3649 10.1102 96.6921 9.94328 97.0726 9.82978C97.4599 9.7096 97.8638 9.64951 98.2844 9.64951C99.0121 9.64951 99.573 9.82644 99.9669 10.1803C100.361 10.5341 100.558 11.0749 100.558 11.8027V15.0073H99.6464ZM97.9039 15.0674C97.5099 15.0674 97.1628 15.0006 96.8623 14.8671C96.5686 14.7336 96.3416 14.55 96.1813 14.3163C96.0211 14.076 95.941 13.8056 95.941 13.5051C95.941 13.218 96.0078 12.9577 96.1413 12.724C96.2815 12.4903 96.5052 12.3034 96.8123 12.1632C97.1261 12.023 97.5467 11.9529 98.0741 11.9529H99.7566V12.6439H98.1142C97.6335 12.6439 97.3097 12.724 97.1427 12.8842C96.9758 13.0445 96.8924 13.2381 96.8924 13.4651C96.8924 13.7255 96.9959 13.9358 97.2028 14.096C97.4098 14.2496 97.6969 14.3263 98.0641 14.3263C98.4246 14.3263 98.7384 14.2462 99.0055 14.086C99.2792 13.9257 99.4761 13.6921 99.5963 13.385L99.7866 14.0459C99.6598 14.3597 99.4361 14.6101 99.1156 14.797C98.7952 14.9773 98.3912 15.0674 97.9039 15.0674ZM104.53 15.0674C104.016 15.0674 103.555 14.9539 103.148 14.7269C102.747 14.4999 102.43 14.1828 102.197 13.7755C101.963 13.3683 101.846 12.8942 101.846 12.3535C101.846 11.8127 101.963 11.342 102.197 10.9414C102.43 10.5341 102.747 10.217 103.148 9.99001C103.555 9.76301 104.016 9.64951 104.53 9.64951C104.977 9.64951 105.381 9.74966 105.742 9.94995C106.102 10.1502 106.389 10.4507 106.603 10.8513C106.823 11.2518 106.934 11.7526 106.934 12.3535C106.934 12.9543 106.827 13.4551 106.613 13.8556C106.406 14.2562 106.122 14.56 105.762 14.767C105.401 14.9673 104.991 15.0674 104.53 15.0674ZM104.61 14.2262C104.944 14.2262 105.244 14.1494 105.512 13.9958C105.785 13.8423 105.999 13.6253 106.152 13.3449C106.313 13.0578 106.393 12.7273 106.393 12.3535C106.393 11.9729 106.313 11.6458 106.152 11.372C105.999 11.0916 105.785 10.8746 105.512 10.7211C105.244 10.5675 104.944 10.4907 104.61 10.4907C104.27 10.4907 103.966 10.5675 103.699 10.7211C103.432 10.8746 103.218 11.0916 103.058 11.372C102.898 11.6458 102.818 11.9729 102.818 12.3535C102.818 12.7273 102.898 13.0578 103.058 13.3449C103.218 13.6253 103.432 13.8423 103.699 13.9958C103.966 14.1494 104.27 14.2262 104.61 14.2262ZM106.423 15.0073V13.5752L106.483 12.3434L106.383 11.1116V7.57649H107.344V15.0073H106.423ZM114.126 15.0674C113.592 15.0674 113.118 14.9506 112.704 14.7169C112.29 14.4832 111.963 14.1628 111.723 13.7555C111.482 13.3416 111.362 12.8742 111.362 12.3535C111.362 11.826 111.482 11.3587 111.723 10.9514C111.963 10.5442 112.29 10.227 112.704 10C113.118 9.76635 113.592 9.64951 114.126 9.64951C114.653 9.64951 115.124 9.76635 115.538 10C115.959 10.227 116.286 10.5442 116.52 10.9514C116.76 11.352 116.88 11.8193 116.88 12.3535C116.88 12.8809 116.76 13.3482 116.52 13.7555C116.286 14.1628 115.959 14.4832 115.538 14.7169C115.124 14.9506 114.653 15.0674 114.126 15.0674ZM114.126 14.2262C114.467 14.2262 114.77 14.1494 115.037 13.9958C115.311 13.8423 115.525 13.6253 115.678 13.3449C115.832 13.0578 115.909 12.7273 115.909 12.3535C115.909 11.9729 115.832 11.6458 115.678 11.372C115.525 11.0916 115.311 10.8746 115.037 10.7211C114.77 10.5675 114.467 10.4907 114.126 10.4907C113.786 10.4907 113.482 10.5675 113.215 10.7211C112.948 10.8746 112.734 11.0916 112.574 11.372C112.414 11.6458 112.333 11.9729 112.333 12.3535C112.333 12.7273 112.414 13.0578 112.574 13.3449C112.734 13.6253 112.948 13.8423 113.215 13.9958C113.482 14.1494 113.786 14.2262 114.126 14.2262ZM121.044 9.64951C121.478 9.64951 121.858 9.73297 122.185 9.89988C122.519 10.0668 122.78 10.3205 122.967 10.661C123.154 11.0015 123.247 11.4321 123.247 11.9529V15.0073H122.286V12.063C122.286 11.5489 122.159 11.1617 121.905 10.9013C121.658 10.641 121.307 10.5108 120.853 10.5108C120.513 10.5108 120.216 10.5775 119.962 10.7111C119.708 10.8446 119.512 11.0415 119.371 11.3019C119.238 11.5623 119.171 11.8861 119.171 12.2733V15.0073H118.21V9.69959H119.131V11.1317L118.981 10.7511C119.154 10.4039 119.421 10.1336 119.782 9.93994C120.142 9.74632 120.563 9.64951 121.044 9.64951ZM129.538 15.0674C129.004 15.0674 128.59 14.9239 128.297 14.6368C128.003 14.3497 127.856 13.9391 127.856 13.405V8.53789H128.817V13.3649C128.817 13.652 128.887 13.8723 129.028 14.0259C129.174 14.1795 129.381 14.2562 129.648 14.2562C129.949 14.2562 130.199 14.1728 130.4 14.0059L130.7 14.6969C130.553 14.8237 130.376 14.9172 130.169 14.9773C129.969 15.0374 129.759 15.0674 129.538 15.0674ZM126.955 10.4907V9.69959H130.339V10.4907H126.955ZM134.696 9.64951C135.13 9.64951 135.511 9.73297 135.838 9.89988C136.172 10.0668 136.432 10.3205 136.619 10.661C136.806 11.0015 136.9 11.4321 136.9 11.9529V15.0073H135.938V12.063C135.938 11.5489 135.811 11.1617 135.558 10.9013C135.311 10.641 134.96 10.5108 134.506 10.5108C134.166 10.5108 133.869 10.5775 133.615 10.7111C133.361 10.8446 133.164 11.0415 133.024 11.3019C132.891 11.5623 132.824 11.8861 132.824 12.2733V15.0073H131.862V7.57649H132.824V11.1317L132.633 10.7511C132.807 10.4039 133.074 10.1336 133.435 9.93994C133.795 9.74632 134.216 9.64951 134.696 9.64951ZM141.042 15.0674C140.475 15.0674 139.974 14.9506 139.54 14.7169C139.113 14.4832 138.779 14.1628 138.539 13.7555C138.305 13.3482 138.188 12.8809 138.188 12.3535C138.188 11.826 138.302 11.3587 138.529 10.9514C138.762 10.5442 139.08 10.227 139.48 10C139.887 9.76635 140.345 9.64951 140.852 9.64951C141.366 9.64951 141.82 9.76301 142.214 9.99001C142.608 10.217 142.915 10.5375 143.135 10.9514C143.362 11.3587 143.476 11.836 143.476 12.3835C143.476 12.4236 143.473 12.4703 143.466 12.5237C143.466 12.5771 143.463 12.6272 143.456 12.6739H138.939V11.9829H142.955L142.565 12.2233C142.571 11.8828 142.501 11.579 142.354 11.3119C142.207 11.0449 142.004 10.8379 141.743 10.691C141.49 10.5375 141.193 10.4607 140.852 10.4607C140.518 10.4607 140.221 10.5375 139.961 10.691C139.7 10.8379 139.497 11.0482 139.35 11.322C139.203 11.589 139.13 11.8961 139.13 12.2433V12.4035C139.13 12.7574 139.21 13.0745 139.37 13.3549C139.537 13.6286 139.767 13.8423 140.061 13.9958C140.355 14.1494 140.692 14.2262 141.072 14.2262C141.386 14.2262 141.67 14.1728 141.924 14.066C142.184 13.9591 142.411 13.7989 142.605 13.5853L143.135 14.2062C142.895 14.4866 142.595 14.7002 142.234 14.8471C141.88 14.994 141.483 15.0674 141.042 15.0674Z" fill="white"/>
<path d="M55.9415 32.8613L61.3494 20.8438H63.5469L68.9719 32.8613H66.6371L61.9846 22.0284H62.8773L58.242 32.8613H55.9415ZM58.4308 30.0801L59.0317 28.329H65.5212L66.1221 30.0801H58.4308ZM75.376 32.9815C74.632 32.9815 73.951 32.8098 73.333 32.4665C72.7264 32.1231 72.24 31.6081 71.8737 30.9214C71.5189 30.2232 71.3415 29.3419 71.3415 28.2775C71.3415 27.2016 71.5132 26.3204 71.8565 25.6336C72.2113 24.9469 72.692 24.4376 73.2986 24.1057C73.9052 23.7623 74.5977 23.5907 75.376 23.5907C76.2801 23.5907 77.0756 23.7852 77.7623 24.1744C78.4604 24.5635 79.0098 25.1072 79.4104 25.8053C79.8224 26.5035 80.0284 27.3275 80.0284 28.2775C80.0284 29.2275 79.8224 30.0572 79.4104 30.7668C79.0098 31.465 78.4604 32.0087 77.7623 32.3978C77.0756 32.7869 76.2801 32.9815 75.376 32.9815ZM70.2943 36.1919V23.6937H72.3372V25.8568L72.2686 28.2947L72.4402 30.7325V36.1919H70.2943ZM75.1356 31.1445C75.6506 31.1445 76.1084 31.0301 76.509 30.8012C76.9211 30.5723 77.2473 30.2404 77.4876 29.8054C77.728 29.3705 77.8481 28.8612 77.8481 28.2775C77.8481 27.6823 77.728 27.173 77.4876 26.7496C77.2473 26.3146 76.9211 25.9827 76.509 25.7538C76.1084 25.5249 75.6506 25.4105 75.1356 25.4105C74.6206 25.4105 74.157 25.5249 73.745 25.7538C73.333 25.9827 73.0068 26.3146 72.7664 26.7496C72.5261 27.173 72.4059 27.6823 72.4059 28.2775C72.4059 28.8612 72.5261 29.3705 72.7664 29.8054C73.0068 30.2404 73.333 30.5723 73.745 30.8012C74.157 31.0301 74.6206 31.1445 75.1356 31.1445ZM87.1453 32.9815C86.4014 32.9815 85.7204 32.8098 85.1024 32.4665C84.4958 32.1231 84.0093 31.6081 83.6431 30.9214C83.2883 30.2232 83.1109 29.3419 83.1109 28.2775C83.1109 27.2016 83.2826 26.3204 83.6259 25.6336C83.9807 24.9469 84.4614 24.4376 85.068 24.1057C85.6746 23.7623 86.3671 23.5907 87.1453 23.5907C88.0495 23.5907 88.845 23.7852 89.5317 24.1744C90.2298 24.5635 90.7792 25.1072 91.1798 25.8053C91.5918 26.5035 91.7978 27.3275 91.7978 28.2775C91.7978 29.2275 91.5918 30.0572 91.1798 30.7668C90.7792 31.465 90.2298 32.0087 89.5317 32.3978C88.845 32.7869 88.0495 32.9815 87.1453 32.9815ZM82.0636 36.1919V23.6937H84.1066V25.8568L84.038 28.2947L84.2096 30.7325V36.1919H82.0636ZM86.905 31.1445C87.42 31.1445 87.8778 31.0301 88.2784 30.8012C88.6904 30.5723 89.0166 30.2404 89.257 29.8054C89.4973 29.3705 89.6175 28.8612 89.6175 28.2775C89.6175 27.6823 89.4973 27.173 89.257 26.7496C89.0166 26.3146 88.6904 25.9827 88.2784 25.7538C87.8778 25.5249 87.42 25.4105 86.905 25.4105C86.39 25.4105 85.9264 25.5249 85.5144 25.7538C85.1024 25.9827 84.7762 26.3146 84.5358 26.7496C84.2955 27.173 84.1753 27.6823 84.1753 28.2775C84.1753 28.8612 84.2955 29.3705 84.5358 29.8054C84.7762 30.2404 85.1024 30.5723 85.5144 30.8012C85.9264 31.0301 86.39 31.1445 86.905 31.1445ZM102.509 33.033C101.571 33.033 100.672 32.9014 99.8138 32.6381C98.9554 32.3635 98.2744 32.0144 97.7708 31.5909L98.5433 29.8569C99.024 30.2346 99.6192 30.5494 100.329 30.8012C101.038 31.053 101.765 31.1789 102.509 31.1789C103.139 31.1789 103.648 31.1102 104.037 30.9729C104.426 30.8355 104.712 30.6524 104.895 30.4235C105.079 30.1831 105.17 29.9142 105.17 29.6166C105.17 29.2503 105.039 28.9585 104.775 28.741C104.512 28.5121 104.169 28.3347 103.745 28.2088C103.333 28.0715 102.87 27.9456 102.355 27.8311C101.851 27.7167 101.342 27.5851 100.827 27.4363C100.323 27.276 99.8595 27.0758 99.4361 26.8354C99.024 26.5836 98.6864 26.2517 98.4232 25.8397C98.1599 25.4276 98.0283 24.9012 98.0283 24.2602C98.0283 23.6078 98.2 23.0127 98.5433 22.4748C98.8981 21.9254 99.4303 21.4905 100.14 21.17C100.861 20.8381 101.771 20.6721 102.87 20.6721C103.591 20.6721 104.306 20.7637 105.016 20.9468C105.725 21.1299 106.343 21.3932 106.87 21.7365L106.166 23.4705C105.628 23.15 105.073 22.9154 104.501 22.7666C103.928 22.6064 103.379 22.5263 102.852 22.5263C102.234 22.5263 101.731 22.6007 101.342 22.7494C100.964 22.8982 100.684 23.0928 100.5 23.3332C100.329 23.5735 100.243 23.8482 100.243 24.1572C100.243 24.5235 100.369 24.821 100.621 25.0499C100.884 25.2674 101.222 25.4391 101.634 25.565C102.057 25.6909 102.526 25.8168 103.041 25.9427C103.556 26.0571 104.066 26.1887 104.569 26.3375C105.084 26.4863 105.548 26.6809 105.96 26.9212C106.383 27.1616 106.721 27.4878 106.973 27.8998C107.236 28.3118 107.368 28.8326 107.368 29.4621C107.368 30.103 107.19 30.6982 106.835 31.2475C106.492 31.7855 105.96 32.2204 105.239 32.5523C104.518 32.8728 103.608 33.033 102.509 33.033ZM112.825 32.9815C111.818 32.9815 111.04 32.724 110.491 32.2089C109.941 31.6825 109.667 30.9099 109.667 29.8913V21.6679H111.813V29.8398C111.813 30.2747 111.921 30.6123 112.139 30.8527C112.368 31.093 112.682 31.2132 113.083 31.2132C113.564 31.2132 113.964 31.0873 114.285 30.8355L114.886 32.3635C114.634 32.5695 114.325 32.724 113.958 32.827C113.592 32.93 113.215 32.9815 112.825 32.9815ZM108.156 25.4791V23.7623H114.268V25.4791H108.156ZM120.469 32.9815C119.531 32.9815 118.695 32.7812 117.963 32.3806C117.23 31.9686 116.652 31.4078 116.229 30.6982C115.805 29.9886 115.594 29.1817 115.594 28.2775C115.594 27.3619 115.805 26.555 116.229 25.8568C116.652 25.1472 117.23 24.5921 117.963 24.1915C118.695 23.791 119.531 23.5907 120.469 23.5907C121.419 23.5907 122.261 23.791 122.993 24.1915C123.737 24.5921 124.315 25.1415 124.727 25.8397C125.151 26.5378 125.362 27.3504 125.362 28.2775C125.362 29.1817 125.151 29.9886 124.727 30.6982C124.315 31.4078 123.737 31.9686 122.993 32.3806C122.261 32.7812 121.419 32.9815 120.469 32.9815ZM120.469 31.1445C120.996 31.1445 121.465 31.0301 121.877 30.8012C122.289 30.5723 122.61 30.2404 122.839 29.8054C123.079 29.3705 123.199 28.8612 123.199 28.2775C123.199 27.6823 123.079 27.173 122.839 26.7496C122.61 26.3146 122.289 25.9827 121.877 25.7538C121.465 25.5249 121.002 25.4105 120.487 25.4105C119.96 25.4105 119.491 25.5249 119.079 25.7538C118.678 25.9827 118.358 26.3146 118.117 26.7496C117.877 27.173 117.757 27.6823 117.757 28.2775C117.757 28.8612 117.877 29.3705 118.117 29.8054C118.358 30.2404 118.678 30.5723 119.079 30.8012C119.491 31.0301 119.954 31.1445 120.469 31.1445ZM127.414 32.8613V23.6937H129.457V26.2174L129.217 25.4791C129.492 24.8611 129.921 24.3918 130.505 24.0714C131.1 23.7509 131.838 23.5907 132.719 23.5907V25.6336C132.628 25.6108 132.542 25.5993 132.462 25.5993C132.382 25.5879 132.301 25.5821 132.221 25.5821C131.409 25.5821 130.762 25.8225 130.281 26.3032C129.801 26.7725 129.56 27.4763 129.56 28.4148V32.8613H127.414ZM138.765 32.9815C137.746 32.9815 136.854 32.7812 136.087 32.3806C135.331 31.9686 134.742 31.4078 134.319 30.6982C133.906 29.9886 133.7 29.1817 133.7 28.2775C133.7 27.3619 133.901 26.555 134.301 25.8568C134.713 25.1472 135.274 24.5921 135.984 24.1915C136.705 23.791 137.523 23.5907 138.439 23.5907C139.332 23.5907 140.127 23.7852 140.825 24.1744C141.523 24.5635 142.073 25.1129 142.473 25.8225C142.874 26.5321 143.074 27.3676 143.074 28.329C143.074 28.4206 143.068 28.5236 143.057 28.638C143.057 28.7525 143.051 28.8612 143.04 28.9642H135.4V27.5393H141.907L141.065 27.9856C141.077 27.4592 140.968 26.9956 140.739 26.5951C140.51 26.1945 140.196 25.8797 139.795 25.6508C139.406 25.4219 138.954 25.3075 138.439 25.3075C137.912 25.3075 137.449 25.4219 137.048 25.6508C136.659 25.8797 136.35 26.2002 136.121 26.6122C135.904 27.0128 135.795 27.4878 135.795 28.0372V28.3805C135.795 28.9299 135.921 29.4163 136.173 29.8398C136.424 30.2633 136.779 30.5894 137.237 30.8184C137.695 31.0473 138.221 31.1617 138.817 31.1617C139.332 31.1617 139.795 31.0816 140.207 30.9214C140.619 30.7611 140.985 30.5093 141.306 30.166L142.456 31.4879C142.044 31.9686 141.523 32.3406 140.894 32.6038C140.276 32.8556 139.566 32.9815 138.765 32.9815Z" fill="white"/>
<defs>
<clipPath id="clip0_9113_1789">
<rect width="23.3722" height="28.7363" fill="white" transform="translate(17.6367 7.06616)"/>
</clipPath>
</defs>
</svg>
