<svg width="24" height="24" viewBox="0 0 24 24" fill="none" xmlns="http://www.w3.org/2000/svg">
<path d="M12 4C7.58172 4 4 7.58172 4 12C4 16.4183 7.58172 20 12 20C16.4183 20 20 16.4183 20 12C20 11.5446 19.962 11.0988 19.8893 10.6655C19.798 10.1208 20.1654 9.60516 20.7101 9.51378C21.2548 9.4224 21.7704 9.78987 21.8618 10.3345C21.9528 10.8768 22 11.4333 22 12C22 17.5228 17.5228 22 12 22C6.47715 22 2 17.5228 2 12C2 6.47715 6.47715 2 12 2C13.5947 2 15.1049 2.37401 16.445 3.04001C16.9396 3.28579 17.1413 3.88597 16.8955 4.38055C16.6497 4.87513 16.0495 5.07682 15.555 4.83103C14.4852 4.2994 13.279 4 12 4Z" fill="#DC4D04"/>
<path d="M20 3C20.5523 3 21 3.44772 21 4V5H22C22.5523 5 23 5.44772 23 6C23 6.55228 22.5523 7 22 7H21V8C21 8.55228 20.5523 9 20 9C19.4477 9 19 8.55228 19 8V7H18C17.4477 7 17 6.55228 17 6C17 5.44772 17.4477 5 18 5H19V4C19 3.44772 19.4477 3 20 3Z" fill="#DC4D04"/>
<path d="M9.29289 15.2929C9.68342 14.9024 10.3166 14.9024 10.7071 15.2929C11.4212 16.0069 12.5788 16.0069 13.2929 15.2929C13.6834 14.9024 14.3166 14.9024 14.7071 15.2929C15.0976 15.6834 15.0976 16.3166 14.7071 16.7071C13.212 18.2022 10.788 18.2022 9.29289 16.7071C8.90237 16.3166 8.90237 15.6834 9.29289 15.2929Z" fill="#DC4D04"/>
<path d="M10.2 9.5C10.2 8.67157 9.52844 8 8.70001 8C7.87158 8 7.20001 8.67157 7.20001 9.5C7.20001 10.3284 7.87158 11 8.70001 11C9.52844 11 10.2 10.3284 10.2 9.5Z" fill="#DC4D04"/>
<path d="M15.3 8C16.1284 8 16.8 8.67157 16.8 9.5C16.8 10.3284 16.1284 11 15.3 11C14.4716 11 13.8 10.3284 13.8 9.5C13.8 8.67157 14.4716 8 15.3 8Z" fill="#DC4D04"/>
</svg>
