<svg width="24" height="24" viewBox="0 0 24 24" fill="none" xmlns="http://www.w3.org/2000/svg">
<path fill-rule="evenodd" clip-rule="evenodd" d="M10.9997 2.5C9.89508 2.5 8.99965 3.39543 8.99965 4.5V5.5H8.49965C6.29052 5.5 4.49965 7.29086 4.49965 9.5V11.132L3.32789 11.7178C1.91257 12.4255 0.957306 13.969 1.28848 15.657C1.42793 16.3678 1.63552 17.1968 1.94395 17.9893C2.24837 18.7716 2.67588 19.5836 3.28867 20.2032C3.98718 20.9094 4.75391 21.2953 5.57358 21.4385C6.36541 21.5768 7.14418 21.4771 7.85466 21.3254C8.25341 21.2403 8.71365 21.1171 9.15334 20.9994C9.43823 20.9231 9.71449 20.8492 9.95981 20.7894C10.6517 20.6207 11.3206 20.5 11.9997 20.5C12.6787 20.5 13.3476 20.6207 14.0395 20.7894C14.2848 20.8492 14.5611 20.9231 14.846 20.9994C15.2857 21.1171 15.7459 21.2403 16.1446 21.3254C16.8551 21.4771 17.6339 21.5768 18.4257 21.4385C19.2454 21.2953 20.0121 20.9094 20.7106 20.2032C21.3234 19.5836 21.7509 18.7716 22.0554 17.9893C22.3638 17.1968 22.5714 16.3678 22.7108 15.657C23.042 13.969 22.0867 12.4255 20.6714 11.7178L19.4997 11.132V9.5C19.4997 7.29086 17.7088 5.5 15.4997 5.5H14.9997V4.5C14.9997 3.39543 14.1042 2.5 12.9997 2.5H10.9997ZM10.2108 8.27639L6.49965 10.132V9.5C6.49965 8.39543 7.39508 7.5 8.49965 7.5H15.4997C16.6042 7.5 17.4997 8.39543 17.4997 9.5V10.132L13.7885 8.27639C12.6624 7.71334 11.3369 7.71334 10.2108 8.27639ZM11.1052 10.0652C11.6683 9.78372 12.331 9.78372 12.8941 10.0652L19.777 13.5067C20.5146 13.8755 20.8805 14.5979 20.7482 15.272C20.6226 15.9122 20.4429 16.618 20.1915 17.264C19.9361 17.9203 19.6312 18.4505 19.2887 18.7968C18.8696 19.2205 18.4748 19.3996 18.0816 19.4683C17.6605 19.5419 17.175 19.5003 16.5622 19.3695C16.1843 19.2888 15.8412 19.196 15.4645 19.0941C15.1771 19.0163 14.87 18.9332 14.5131 18.8462C13.7562 18.6618 12.91 18.5 11.9997 18.5C11.0893 18.5 10.2431 18.6618 9.48619 18.8462C9.12928 18.9332 8.82231 19.0163 8.53491 19.0941C8.15819 19.196 7.81495 19.2889 7.43711 19.3695C6.82433 19.5003 6.33879 19.5419 5.91773 19.4683C5.52451 19.3996 5.12976 19.2205 4.71064 18.7968C4.36809 18.4505 4.0632 17.9203 3.80778 17.264C3.55637 16.618 3.37668 15.9122 3.25106 15.272C3.11881 14.5979 3.48469 13.8755 4.22232 13.5067L11.1052 10.0652ZM12.9997 5.5H10.9997V4.5H12.9997V5.5Z" fill="#DC4D04"/>
</svg>
